# Blender 4.0.1
# www.blender.org
mtllib painting.mtl
o Cube
v -0.105000 0.031883 0.148500
v -0.105000 0.031883 -0.148500
v 0.105000 0.031883 0.148500
v 0.105000 0.031883 -0.148500
v -0.082274 0.046844 -0.125774
v 0.082274 0.046844 -0.125774
v -0.082274 0.046844 0.125774
v 0.082274 0.046844 0.125774
v -0.089840 0.060697 0.133340
v -0.082274 0.053131 0.125774
v -0.089840 0.056265 0.133340
v -0.086706 0.053131 0.130206
v -0.089840 0.060697 -0.133340
v -0.082274 0.053131 -0.125774
v -0.089840 0.056265 -0.133340
v -0.086706 0.053131 -0.130206
v 0.082274 0.053131 0.125774
v 0.089840 0.060697 0.133340
v 0.086706 0.053131 0.130206
v 0.089840 0.056265 0.133340
v 0.082274 0.053131 -0.125774
v 0.089840 0.060697 -0.133340
v 0.086706 0.053131 -0.130206
v 0.089840 0.056265 -0.133340
v -0.105000 0.052265 -0.148500
v -0.096568 0.060697 -0.140068
v -0.103870 0.056481 -0.147370
v -0.100784 0.059567 -0.144284
v 0.096568 0.060697 -0.140068
v 0.105000 0.052265 -0.148500
v 0.100784 0.059567 -0.144284
v 0.103870 0.056481 -0.147370
v -0.105000 0.052265 0.148500
v -0.096568 0.060697 0.140068
v -0.103870 0.056481 0.147370
v -0.100784 0.059567 0.144284
v 0.096568 0.060697 0.140068
v 0.105000 0.052265 0.148500
v 0.100784 0.059567 0.144284
v 0.103870 0.056481 0.147370
vn -0.0000 1.0000 -0.0000
vn -0.0984 0.9903 -0.0984
vn -0.0984 0.9903 0.0984
vn 0.0984 0.9903 0.0984
vn 0.0984 0.9903 -0.0984
vn -0.0000 -0.0000 -1.0000
vn -0.0000 0.1191 -0.9929
vn -0.0000 -0.0000 1.0000
vn -0.0000 0.1191 0.9929
vn -1.0000 -0.0000 -0.0000
vn 1.0000 -0.0000 -0.0000
vn 0.9929 0.1191 -0.0000
vn -0.0000 0.7071 0.7071
vn 0.7071 0.7071 -0.0000
vn -0.7071 0.7071 -0.0000
vn -0.0000 0.7071 -0.7071
vn 0.0583 0.8687 -0.4919
vn -0.0583 0.8687 -0.4919
vn -0.0000 0.4260 -0.9047
vn -0.0583 0.8687 0.4919
vn -0.9659 0.2588 -0.0000
vn -0.9929 0.1191 -0.0000
vn 0.0583 0.8687 0.4919
vn 0.9659 0.2588 -0.0000
vn -0.0000 0.4260 0.9047
vt 0.834092 0.763001
vt 0.833663 0.489749
vt 0.840135 0.483668
vt 0.840135 0.769507
vt 0.830030 0.490211
vt 0.830459 0.763463
vt 0.823987 0.769544
vt 0.823987 0.483705
vt 0.888095 0.797548
vt 0.861686 0.797548
vt 0.861687 0.417379
vt 0.888095 0.417379
vt 0.832994 0.696999
vt 0.832532 0.509371
vt 0.839037 0.503328
vt 0.839075 0.703471
vt 0.887228 0.795253
vt 0.860819 0.795253
vt 0.860820 0.415085
vt 0.887229 0.415085
vt 0.404739 0.295247
vt 0.404739 0.457489
vt 0.398540 0.457489
vt 0.398540 0.295247
vt 0.457961 0.000108
vt 0.457961 0.248130
vt 0.451762 0.248130
vt 0.451762 0.000108
vt 0.445348 0.410587
vt 0.445348 0.248345
vt 0.451547 0.248345
vt 0.451547 0.410587
vt 0.328323 0.108781
vt 0.501119 0.108781
vt 0.501119 0.677119
vt 0.328323 0.677119
vt 0.843346 0.801395
vt 0.823250 0.801395
vt 0.823251 0.408972
vt 0.843346 0.408972
vt 0.829470 0.509800
vt 0.829932 0.697428
vt 0.823427 0.703471
vt 0.823389 0.503328
vt 0.843882 0.523509
vt 0.843660 0.683062
vt 0.839183 0.687450
vt 0.839501 0.519027
vt 0.833992 0.692259
vt 0.834684 0.513837
vt 0.819726 0.749273
vt 0.819954 0.504161
vt 0.824436 0.499780
vt 0.824114 0.753750
vt 0.829626 0.494963
vt 0.828923 0.758941
vt 0.844396 0.503939
vt 0.844167 0.749052
vt 0.839686 0.753432
vt 0.840008 0.499462
vt 0.834496 0.758249
vt 0.835199 0.494271
vt 0.818582 0.683290
vt 0.818804 0.523737
vt 0.823281 0.519349
vt 0.822963 0.687772
vt 0.828472 0.514540
vt 0.827780 0.692962
vt 0.451547 0.000108
vt 0.451547 0.248130
vt 0.445348 0.248130
vt 0.445348 0.000108
vt 0.818904 0.707840
vt 0.818865 0.498960
vt 0.000109 0.203007
vt 0.000110 0.004264
vt 0.004413 0.001221
vt 0.004413 0.206050
vt 0.008716 0.000108
vt 0.008716 0.207164
vt 0.844588 0.479366
vt 0.844588 0.773808
vt 0.000109 0.495843
vt 0.000109 0.211320
vt 0.004413 0.208277
vt 0.004412 0.498886
vt 0.008715 0.500000
vt 0.819533 0.773846
vt 0.819533 0.479404
vt 0.000108 0.995736
vt 0.000108 0.711213
vt 0.004412 0.708170
vt 0.004411 0.998779
vt 0.008715 0.707056
vt 0.008714 0.999892
vt 0.843560 0.498959
vt 0.843599 0.707839
vt 0.000108 0.702899
vt 0.000109 0.504157
vt 0.004412 0.501114
vt 0.004412 0.705942
vt 0.844005 0.803069
vt 0.823909 0.803069
vt 0.823910 0.410647
vt 0.844006 0.410647
s 1
usemtl Wood
f 9/1/1 13/2/1 26/3/2 34/4/3
f 22/5/1 18/6/1 37/7/4 29/8/5
f 2/9/6 25/10/7 30/11/7 4/12/6
f 18/13/1 9/14/1 34/15/3 37/16/4
f 3/17/8 38/18/9 33/19/9 1/20/8
f 10/21/6 17/22/6 8/23/6 7/24/6
f 17/25/10 21/26/10 6/27/10 8/28/10
f 21/29/8 14/30/8 5/31/8 6/32/8
f 4/37/11 30/38/12 38/39/12 3/40/11
f 13/41/1 22/42/1 29/43/5 26/44/2
f 14/45/1 21/46/1 23/47/1 16/48/1
f 16/48/13 23/47/13 24/49/13 15/50/13
f 15/50/8 24/49/8 22/42/8 13/41/8
f 10/51/1 14/52/1 16/53/1 12/54/1
f 12/54/14 16/53/14 15/55/14 11/56/14
f 11/56/11 15/55/11 13/2/11 9/1/11
f 21/57/1 17/58/1 19/59/1 23/60/1
f 23/60/15 19/59/15 20/61/15 24/62/15
f 24/62/10 20/61/10 18/6/10 22/5/10
f 17/63/1 10/64/1 12/65/1 19/66/1
f 19/66/16 12/65/16 11/67/16 20/68/16
f 20/68/6 11/67/6 9/14/6 18/13/6
f 14/69/11 10/70/11 7/71/11 5/72/11
f 26/44/2 29/43/5 31/73/17 28/74/18
f 28/75/18 31/76/17 32/77/19 27/78/19
f 27/78/19 32/77/19 30/79/7 25/80/7
f 34/4/3 26/3/2 28/81/18 36/82/20
f 36/83/15 28/84/15 27/85/15 35/86/15
f 35/86/21 27/85/21 25/80/22 33/87/22
f 29/8/5 37/7/4 39/88/23 31/89/17
f 31/90/14 39/91/14 40/92/14 32/93/14
f 32/93/24 40/92/24 38/94/12 30/95/12
f 37/16/4 34/15/3 36/96/20 39/97/23
f 39/98/23 36/99/20 35/100/25 40/101/25
f 40/101/25 35/100/25 33/87/9 38/94/9
f 1/102/10 33/103/22 25/104/22 2/105/10
usemtl Paint
f 7/33/1 8/34/1 6/35/1 5/36/1
