# Blender 4.0.2
# www.blender.org
mtllib tentacle.mtl
o Plane.001
v -0.675840 0.229838 0.000000
v -0.336079 0.075264 0.000000
v -1.025063 1.159270 0.000000
v -0.072731 0.003702 0.000000
v 0.837141 3.299850 0.000000
v 0.219242 0.015152 0.000000
v 0.350829 2.032604 0.000000
v 0.471141 0.075264 0.000000
v 0.740214 0.189764 0.000000
v 0.616160 4.422977 0.000000
v 0.974937 0.410175 0.000000
v 0.648615 0.978934 0.000000
v -0.923683 1.751645 0.000000
v -0.665980 2.370100 0.000000
v 0.759284 4.005531 0.000000
v 0.121202 3.578068 0.000000
v 0.159303 4.187670 0.000000
v -0.081623 4.414283 0.000000
v -0.082763 4.995473 0.000000
v -0.076852 4.125649 0.000000
v -0.502885 4.780045 0.000000
v -0.474260 4.174152 0.000000
v -0.415579 3.763068 0.000000
v -0.626926 3.780561 0.000000
v 0.301048 4.732125 0.000000
v -0.536161 3.740340 0.000000
vn -0.0000 -0.0000 1.0000
vt 0.176065 0.050610
vt 0.344776 0.019941
vt 0.020455 0.237641
vt 0.475393 0.005877
vt 0.619924 0.008550
vt 0.744462 0.020963
vt 0.814076 0.202512
vt 0.877334 0.044339
vt 0.992869 0.088980
vt 0.670279 0.406279
vt 0.176657 0.472527
vt 0.053361 0.344396
vt 0.902570 0.661001
vt 0.575730 0.713173
vt 0.890338 0.799981
vt 0.592696 0.835866
vt 0.818172 0.883785
vt 0.472699 0.881153
vt 0.311156 0.970167
vt 0.661184 0.945583
vt 0.470324 0.998079
vt 0.262976 0.954206
vt 0.279036 0.832344
vt 0.204671 0.752965
vt 0.249738 0.744988
vt 0.475960 0.823089
vt 0.309372 0.749713
s 0
usemtl tentacle
f 1/1/1 2/2/1 3/3/1
f 3/3/1 2/2/1 4/4/1
f 3/3/1 4/4/1 6/5/1
f 3/3/1 6/5/1 8/6/1 12/7/1
f 12/7/1 8/6/1 9/8/1
f 12/7/1 9/8/1 11/9/1
f 3/3/1 12/7/1 7/10/1 14/11/1
f 3/3/1 14/11/1 13/12/1
f 14/11/1 7/10/1 5/13/1 16/14/1
f 16/14/1 5/13/1 15/15/1 17/16/1
f 17/16/1 15/15/1 10/17/1 18/18/1
f 21/19/1 25/20/1 19/21/1
f 21/22/1 22/23/1 18/18/1
f 18/18/1 22/23/1 24/24/1 26/25/1
f 20/26/1 18/18/1 26/25/1 23/27/1
f 18/18/1 10/17/1 25/20/1 21/19/1
