# Blender 4.3.2
# www.blender.org
mtllib drawer.mtl
o Cube.004
v -0.431413 0.676738 0.362189
v -0.456383 0.000000 0.000000
v 0.431412 0.676738 0.362189
v 0.456382 0.000000 0.000000
v -0.456383 0.734971 0.229083
v 0.456382 0.734971 0.229083
v -0.431413 0.767401 0.039906
v 0.431412 0.767401 0.039906
v -0.456383 0.196055 -0.350185
v 0.456382 0.196055 -0.350185
v -0.431413 0.758564 0.131852
v 0.456382 0.758564 0.131852
v 0.456382 0.666729 0.385066
v -0.456383 0.666729 0.385066
v -0.456383 0.769790 0.015051
v 0.456382 0.769790 0.015051
v -0.456383 0.758564 0.131852
v 0.431412 0.758564 0.131852
v -0.431413 0.734971 0.229083
v 0.431412 0.734971 0.229083
v 0.431412 0.582026 0.166279
v -0.431413 0.582026 0.166279
v 0.431412 0.605619 0.069049
v -0.431413 0.605619 0.069049
v 0.431412 0.523793 0.299386
v -0.431413 0.523793 0.299386
v -0.431413 0.614456 -0.022897
v 0.431412 0.614456 -0.022897
vn -1.0000 -0.0000 -0.0000
vn 0.7648 -0.2447 0.5960
vn 1.0000 -0.0000 -0.0000
vn 0.6308 -0.2947 0.7178
vn -0.0000 -0.8726 -0.4885
vn -0.0000 0.5370 -0.8436
vn 0.7122 0.2667 -0.6494
vn 0.7019 0.2705 -0.6589
vn -0.0000 -0.5001 0.8660
vn -0.0000 0.9162 0.4008
vn -0.0000 0.9954 0.0957
vn -0.0000 0.9861 0.1662
vn -0.0000 0.9476 0.3195
vn -0.7122 0.2667 -0.6494
vn -0.7019 0.2705 -0.6589
vn -0.7648 -0.2447 0.5960
vn -0.6308 -0.2947 0.7178
vt 0.285320 0.941254
vt 0.285320 0.791200
vt 0.285320 0.824428
vt 0.286819 0.817357
vt 0.286819 0.791200
vt 0.340116 0.941254
vt 0.340116 0.824428
vt 0.340116 0.791200
vt 0.338617 0.791200
vt 0.338617 0.817357
vt 0.338617 0.791200
s 1
usemtl tilemap
f 2/1/1 14/2/1 5/2/1 17/2/1 15/3/1 9/1/1
f 7/4/2 11/5/3 24/5/3 27/4/4
f 11/5/3 19/5/3 22/5/3 24/5/3
f 4/6/3 10/6/3 16/7/3 12/8/3 6/8/3 13/8/3
f 2/1/5 9/1/5 10/6/5 4/6/5
f 15/3/6 16/7/6 10/6/6 9/1/6
f 19/5/3 1/5/7 26/5/8 22/5/3
f 2/1/9 4/6/9 13/8/9 14/2/9
f 3/9/10 1/5/10 14/2/10 13/8/10
f 7/4/11 8/10/11 16/7/11 15/3/11
f 11/5/12 7/4/11 15/3/11 17/2/12
f 8/10/11 18/11/12 12/8/12 16/7/11
f 19/5/13 11/5/12 17/2/12 5/2/13
f 18/11/12 20/11/13 6/8/13 12/8/12
f 1/5/10 19/5/13 5/2/13 14/2/10
f 20/11/13 3/9/10 13/8/10 6/8/13
f 25/9/10 21/11/13 22/5/13 26/5/10
f 21/11/13 23/11/12 24/5/12 22/5/13
f 27/4/11 24/5/12 23/11/12 28/10/11
f 1/5/7 3/9/14 25/9/15 26/5/8
f 3/9/14 20/11/1 21/11/1 25/9/15
f 20/11/1 18/11/1 23/11/1 21/11/1
f 18/11/1 8/10/16 28/10/17 23/11/1
f 8/10/16 7/4/2 27/4/4 28/10/17
