# Blender 4.3.2
# www.blender.org
mtllib fission_for_dummies.mtl
o Cube.006
v -0.103675 0.024279 -0.301727
v -0.104942 -0.052019 -0.297763
v 0.235620 0.016201 -0.192808
v 0.255215 -0.002345 -0.185483
v 0.249375 0.013084 -0.188233
v 0.254833 -0.025396 -0.184285
v 0.234621 -0.043941 -0.189684
v 0.248480 -0.040825 -0.185433
v 0.221114 0.024279 -0.197908
v 0.219847 -0.052019 -0.193944
v 0.228385 0.021343 -0.195415
v 0.227216 -0.049084 -0.191757
v -0.104808 -0.043941 -0.298183
v -0.103809 0.016201 -0.301308
v 0.219981 -0.043941 -0.194364
v 0.220980 0.016201 -0.197488
v 0.228300 0.016201 -0.195148
v 0.227301 -0.043941 -0.192024
v -0.097694 -0.043432 -0.286104
v -0.096695 0.016710 -0.289228
v 0.217137 -0.043432 -0.185467
v 0.218136 0.016710 -0.188592
v -0.171287 0.030071 -0.055875
v 0.143544 0.030071 0.044762
v 0.142545 -0.030071 0.047885
v 0.259813 -0.001389 -0.184068
v 0.252943 0.016760 -0.187303
v 0.235754 0.024279 -0.193228
v 0.234487 -0.052019 -0.189264
v 0.251926 -0.044501 -0.184121
v 0.259399 -0.026352 -0.182771
v 0.232776 0.016710 -0.183912
v 0.252372 -0.001835 -0.176587
v 0.246531 0.013594 -0.179337
v 0.251989 -0.024887 -0.175389
v 0.245636 -0.040316 -0.176536
v 0.225456 0.016710 -0.186252
v 0.224457 -0.043432 -0.183127
v 0.231777 -0.043432 -0.180788
v -0.258546 0.052020 0.182772
v -0.259813 -0.024278 0.186736
v 0.080749 0.043941 0.291690
v 0.100344 0.025396 0.299016
v 0.094504 0.040825 0.296266
v 0.099961 0.002345 0.300214
v 0.079750 -0.016200 0.294815
v 0.093609 -0.013084 0.299067
v 0.066243 0.052020 0.286591
v 0.064976 -0.024278 0.290555
v 0.073514 0.049084 0.289083
v 0.072345 -0.021343 0.292742
v -0.259679 -0.016200 0.186316
v -0.258680 0.043941 0.183191
v 0.065110 -0.016200 0.290135
v 0.066109 0.043941 0.287011
v 0.073429 0.043941 0.289351
v 0.072430 -0.016200 0.292475
v -0.246877 -0.016710 0.180603
v -0.245879 0.043432 0.177478
v 0.067954 -0.016710 0.281239
v 0.068952 0.043432 0.278114
v 0.104942 0.026352 0.300431
v 0.098072 0.044501 0.297196
v 0.080883 0.052020 0.291271
v 0.079616 -0.024278 0.295235
v 0.097054 -0.016760 0.300378
v 0.104527 0.001389 0.301728
v 0.083593 0.043432 0.282794
v 0.103188 0.024887 0.290120
v 0.097348 0.040316 0.287369
v 0.102805 0.001836 0.291317
v 0.096453 -0.013594 0.290170
v 0.076273 0.043432 0.280454
v 0.075274 -0.016710 0.283578
v 0.082594 -0.016710 0.285919
v -0.172286 -0.030071 -0.052751
v -0.182243 -0.030071 -0.055934
v -0.181245 0.030071 -0.059058
vn -0.3648 0.5451 -0.7549
vn -0.3840 -0.6079 -0.6950
vn 0.1425 -0.7166 -0.6827
vn -0.3869 -0.1691 -0.9065
vn -0.0975 -0.4751 -0.8745
vn -0.3826 0.0870 -0.9198
vn 0.1650 0.6369 -0.7531
vn -0.0832 0.3849 -0.9192
vn 0.3440 0.6939 -0.6325
vn 0.3198 -0.7667 -0.5566
vn 0.2523 0.5596 -0.7894
vn 0.2323 -0.6464 -0.7267
vn -0.3648 0.5451 -0.7548
vn -0.3840 -0.6080 -0.6949
vn 0.2267 0.6676 -0.7092
vn 0.2033 -0.7446 -0.6359
vn -0.2512 0.7930 -0.5550
vn -0.2783 -0.8375 -0.4702
vn 0.2793 0.3978 -0.8739
vn 0.2645 -0.4953 -0.8275
vn -0.9525 -0.0000 -0.3045
vn 0.0166 0.9985 -0.0519
vn -0.0166 -0.9985 0.0519
vn 0.9019 0.1091 -0.4179
vn 0.7236 0.5139 -0.4607
vn 0.2152 0.7389 -0.6385
vn 0.1895 -0.8078 -0.5582
vn 0.7054 -0.5825 -0.4038
vn 0.8971 -0.1816 -0.4028
vn 0.1224 -0.7615 -0.6365
vn -0.4971 -0.1816 -0.8485
vn -0.3033 -0.6376 -0.7081
vn -0.4923 0.1091 -0.8636
vn -0.2833 0.5706 -0.7709
vn 0.2032 -0.7446 -0.6358
vn 0.2267 0.6675 -0.7092
vn 0.1465 0.6870 -0.7117
vn -0.7159 0.6079 0.3434
vn -0.7350 -0.5450 0.4033
vn -0.3024 -0.6369 0.7091
vn -0.8452 -0.0870 0.5273
vn -0.6010 -0.3849 0.7005
vn -0.8409 0.1691 0.5140
vn -0.2799 0.7166 0.6388
vn -0.5867 0.4751 0.6558
vn -0.0624 0.7667 0.6389
vn -0.0866 -0.6939 0.7148
vn -0.2323 0.6464 0.7267
vn -0.2523 -0.5596 0.7894
vn -0.7159 0.6080 0.3434
vn -0.7350 -0.5451 0.4033
vn -0.2033 0.7446 0.6358
vn -0.2267 -0.6676 0.7092
vn -0.2033 0.7446 0.6359
vn -0.4995 0.8375 0.2216
vn -0.5265 -0.7930 0.3063
vn -0.2645 0.4953 0.8275
vn -0.2793 -0.3978 0.8739
vn 0.4971 0.1816 0.8485
vn 0.3404 0.5825 0.7381
vn -0.1694 0.8078 0.5646
vn -0.1950 -0.7389 0.6450
vn 0.3222 -0.5139 0.7951
vn 0.4923 -0.1091 0.8636
vn -0.2935 -0.6870 0.6647
vn -0.9019 -0.1091 0.4179
vn -0.6779 -0.5706 0.4636
vn -0.8971 0.1816 0.4028
vn -0.6578 0.6376 0.4009
vn -0.2267 -0.6675 0.7092
vn -0.2032 0.7446 0.6358
vn -0.2695 0.7615 0.5895
vt 0.689720 0.995188
vt 0.356602 0.995188
vt 0.356602 0.505309
vt 0.689720 0.505309
vt 0.353834 0.505309
vt 0.358132 0.505309
vt 0.359859 0.505309
vt 0.359792 0.505309
vt 0.358151 0.505309
vt 0.475824 0.566541
vt 0.451108 0.566541
vt 0.476059 0.566541
vt 0.590062 0.750248
vt 0.353834 0.750248
vt 0.353834 0.514304
vt 0.590062 0.514304
vt 0.718078 0.734232
vt 0.701393 0.734232
vt 0.719308 0.734232
vt 0.718078 0.750897
vt 0.719308 0.750897
vt 0.358135 0.514304
vt 0.359859 0.514304
vt 0.359859 0.750248
vt 0.358135 0.750248
vt 0.361533 0.995188
vt 0.359305 0.995188
vt 0.359305 0.505309
vt 0.361533 0.505309
vt 0.358865 0.995188
vt 0.358865 0.505309
vt 0.358151 0.995188
vt 0.358132 0.995188
vt 0.456554 0.558872
vt 0.456571 0.558403
vt 0.444243 0.558403
vt 0.444243 0.558872
vt 0.358135 0.986192
vt 0.358132 0.750248
vt 0.353834 0.995188
vt 0.359792 0.995188
vt 0.359859 0.995188
vt 0.588158 0.995188
vt 0.590386 0.995188
vt 0.590062 0.986192
vt 0.353834 0.986192
vt 0.718078 0.767561
vt 0.719308 0.767561
vt 0.701393 0.767561
vt 0.359859 0.986192
vt 0.705207 0.751059
vt 0.361533 0.750248
vt 0.361209 0.750248
vt 0.361209 0.986192
vt 0.361209 0.514304
s 1
usemtl Material.003
f 40/1/38 48/2/46 9/3/9 1/4/1
f 62/2/59 67/2/64 31/3/29 26/3/24
f 65/2/62 51/2/49 12/3/12 29/3/27
f 30/3/28 66/2/63 65/2/62 29/3/27
f 15/5/15 18/5/15 12/5/12 10/5/10
f 18/5/15 7/5/7 29/5/27 12/5/12
f 9/5/9 11/5/11 17/5/16 16/5/16
f 11/5/11 28/5/26 3/5/3 17/5/16
f 13/6/13 15/7/15 10/8/10 2/9/2
f 1/10/1 9/11/9 16/11/16 14/12/14
f 23/13/21 24/14/22 22/15/20 20/16/18
f 51/2/49 49/2/47 10/3/10 12/3/12
f 20/17/18 22/18/20 21/18/19 19/19/17
f 23/20/21 20/17/18 19/19/17 76/21/21
f 19/22/17 21/23/19 25/24/23 76/25/21
f 48/2/46 50/2/48 11/3/11 9/3/9
f 31/3/29 67/2/64 66/2/63 30/3/28
f 50/2/48 64/2/61 28/3/26 11/3/11
f 28/3/26 64/2/61 63/2/60 27/3/25
f 27/3/25 63/2/60 62/2/59 26/3/24
f 53/26/51 40/27/38 1/28/1 14/29/14
f 49/30/47 41/30/39 2/31/2 10/31/10
f 41/32/39 52/33/50 13/6/13 2/9/2
f 4/5/4 5/5/5 27/5/25 26/5/24
f 5/5/5 3/5/3 28/5/26 27/5/25
f 7/5/7 8/5/8 30/5/28 29/5/27
f 8/5/8 6/5/6 31/5/29 30/5/28
f 6/5/6 4/5/4 26/5/24 31/5/29
f 22/18/20 37/18/35 32/18/30 34/18/32 33/18/31 35/18/33 36/18/34 39/18/37 38/18/36 21/18/19
f 20/34/18 14/35/14 16/36/16 22/37/20
f 15/7/15 13/6/13 19/22/17 21/23/19
f 58/38/55 76/25/21 77/39/22 52/33/50
f 17/5/16 3/5/3 32/15/30 37/15/35
f 16/5/16 17/5/16 37/15/35 22/15/20
f 8/5/8 7/5/7 39/15/37 36/15/34
f 6/5/6 8/5/8 36/15/34 35/15/33
f 18/5/15 15/5/15 21/15/19 38/15/36
f 7/5/7 18/5/15 38/15/36 39/15/37
f 5/5/5 4/5/4 33/15/31 34/15/32
f 4/5/4 6/5/6 35/15/33 33/15/31
f 3/5/3 5/5/5 34/15/32 32/15/30
f 54/40/52 49/40/47 51/40/49 57/40/54
f 57/40/54 51/40/49 65/40/62 46/40/44
f 48/40/46 55/40/53 56/40/53 50/40/48
f 50/40/48 56/40/53 42/40/40 64/40/61
f 52/33/50 41/32/39 49/41/47 54/42/52
f 40/43/38 53/44/51 55/40/53 48/40/46
f 23/13/21 59/45/56 61/46/58 24/14/22
f 59/47/56 58/48/55 60/49/57 61/49/58
f 23/20/21 76/21/21 58/48/55 59/47/56
f 58/38/55 76/25/21 25/24/23 60/50/57
f 43/40/41 62/40/59 63/40/60 44/40/42
f 44/40/42 63/40/60 64/40/61 42/40/40
f 46/40/44 65/40/62 66/40/63 47/40/45
f 47/40/45 66/40/63 67/40/64 45/40/43
f 45/40/43 67/40/64 62/40/59 43/40/41
f 61/51/58 60/51/57 74/51/71 75/51/72 72/51/69 71/51/68 69/51/66 70/51/67 68/51/65 73/51/70
f 59/45/56 61/46/58 55/40/53 53/44/51
f 54/42/52 60/50/57 58/38/55 52/33/50
f 56/40/53 73/46/70 68/46/65 42/40/40
f 55/40/53 61/46/58 73/46/70 56/40/53
f 47/40/45 72/46/69 75/46/72 46/40/44
f 45/40/43 71/46/68 72/46/69 47/40/45
f 57/40/54 74/46/71 60/46/57 54/40/52
f 46/40/44 75/46/72 74/46/71 57/40/54
f 44/40/42 70/46/67 69/46/66 43/40/41
f 43/40/41 69/46/66 71/46/68 45/40/43
f 42/40/40 68/46/65 70/46/67 44/40/42
f 19/22/17 13/6/13 77/39/22 76/25/21
f 53/26/51 78/52/23 23/53/21 59/54/56
f 20/55/18 23/53/21 78/52/23 14/29/14
