# Blender 4.3.2
# www.blender.org
mtllib gatcha.mtl
o Cube.007
v -0.341166 -0.239410 0.232569
v -0.341166 -0.239410 -0.246251
v -0.341166 0.239410 -0.246251
v 0.341166 -0.239410 0.232569
v 0.341166 -0.239410 -0.246251
v 0.341166 0.239410 -0.246251
v -0.341166 0.012613 0.232569
v -0.341166 0.239410 0.005771
v -0.341166 0.126011 0.202184
v -0.341166 0.209025 0.119170
v 0.341166 0.239410 0.005771
v 0.341166 0.012613 0.232569
v 0.341166 0.209025 0.119170
v 0.341166 0.126011 0.202184
v -0.143579 0.239410 -0.246251
v 0.016028 0.239410 -0.246251
v 0.016028 -0.239410 -0.246251
v -0.143579 -0.239410 0.232569
v 0.016028 -0.239410 0.232569
v -0.143579 -0.239410 -0.246251
v -0.160216 0.126011 0.202184
v -0.160216 -0.239410 -0.246251
v -0.160216 0.209025 0.119170
v -0.160216 0.012613 0.232569
v -0.160216 0.239410 -0.246251
v -0.160216 0.239410 0.005771
v -0.160216 -0.239410 0.232569
v -0.285869 -0.239410 -0.246251
v -0.285869 0.239410 0.005771
v -0.285869 0.126011 0.202184
v -0.285869 0.209025 0.119170
v -0.285869 0.012613 0.232569
v -0.285869 0.239410 -0.246251
v -0.285869 -0.239410 0.232569
v -0.125395 0.239410 0.005771
v -0.125395 0.126011 0.202184
v -0.125395 0.209025 0.119170
v -0.125395 -0.239410 0.232569
v -0.125395 0.012613 0.232569
v -0.125395 0.239410 -0.246251
v -0.125395 -0.239410 -0.246251
v -0.000305 0.126011 0.202184
v -0.000305 0.209025 0.119170
v -0.000305 -0.239410 0.232569
v -0.000305 0.012613 0.232569
v -0.000305 0.239410 -0.246251
v -0.000305 0.239410 0.005771
v -0.000305 -0.239410 -0.246251
v 0.033792 -0.239410 -0.246251
v 0.033792 0.239410 0.005771
v 0.033792 0.239410 -0.246251
v 0.033792 -0.239410 0.232569
v 0.033792 0.209025 0.119170
v 0.033792 0.126011 0.202184
v 0.033792 0.012613 0.232569
v 0.158710 0.239410 -0.246251
v 0.158710 -0.239410 0.232569
v 0.158710 0.209025 0.119170
v 0.158710 0.126011 0.202184
v 0.158710 0.012613 0.232569
v 0.158710 -0.239410 -0.246251
v 0.158710 0.239410 0.005771
v -0.285869 0.126011 0.036236
v -0.160216 0.126011 0.036236
v -0.285869 0.209025 -0.046778
v -0.160216 0.209025 -0.046778
v -0.285869 0.012613 0.066621
v -0.160216 0.012613 0.066621
v -0.125395 0.126011 0.036236
v -0.125395 0.012613 0.066621
v -0.125395 0.209025 -0.046778
v -0.000305 0.126011 0.036236
v -0.000305 0.209025 -0.046778
v -0.000305 0.012613 0.066621
v 0.033792 0.209025 -0.046778
v 0.033792 0.126011 0.036236
v 0.033792 0.012613 0.066621
v 0.158710 0.209025 -0.046778
v 0.158710 0.126011 0.036236
v 0.158710 0.012613 0.066621
v -0.192509 -0.079663 0.232569
v -0.192509 -0.147134 0.232569
v -0.253576 -0.079663 0.232569
v -0.253576 -0.147134 0.232569
v -0.223042 -0.067897 0.232569
v -0.223042 -0.158900 0.232569
v -0.177541 -0.113399 0.232569
v -0.268544 -0.113399 0.232569
v -0.223042 -0.113399 0.232569
v -0.223042 -0.086599 0.246251
v -0.205059 -0.093529 0.246251
v -0.223042 -0.140198 0.246251
v -0.205059 -0.133268 0.246251
v -0.196243 -0.113398 0.246251
v -0.249842 -0.113398 0.246251
v -0.241026 -0.133268 0.246251
v -0.241026 -0.093529 0.246251
v -0.223042 -0.113398 0.246251
v -0.126181 -0.094914 0.231005
v -0.126181 -0.136182 0.231005
v -0.163532 -0.094914 0.231005
v -0.163532 -0.136182 0.231005
v -0.144857 -0.087718 0.231005
v -0.144857 -0.143379 0.231005
v -0.117026 -0.115548 0.231005
v -0.172687 -0.115548 0.231005
v -0.144857 -0.115548 0.231005
v -0.144857 -0.099156 0.239374
v -0.133857 -0.103395 0.239374
v -0.144857 -0.131940 0.239374
v -0.133857 -0.127701 0.239374
v -0.128465 -0.115548 0.239374
v -0.161249 -0.115548 0.239374
v -0.155856 -0.127701 0.239374
v -0.155856 -0.103395 0.239374
v -0.144857 -0.115548 0.239374
vn -0.0000 0.7071 -0.7071
vn -0.0000 0.9914 0.1305
vn -0.0000 0.9071 0.4210
vn -1.0000 -0.0000 -0.0000
vn 1.0000 -0.0000 -0.0000
vn -0.0000 -0.7071 -0.7071
vn -0.0000 0.8660 0.5000
vn -0.0000 0.5000 0.8660
vn -0.0000 0.1305 0.9914
vn -0.0000 0.0869 0.9962
vn -0.0000 -0.7071 0.7071
vn -0.8320 -0.5547 -0.0000
vn -0.5469 -0.3204 0.7734
vn -0.7703 0.3189 0.5523
vn 0.6402 0.7682 -0.0000
vn -0.6402 0.7682 -0.0000
vn -0.5924 0.6392 0.4905
vn 0.5924 0.6392 0.4905
vn 0.8320 -0.5547 -0.0000
vn 0.5469 -0.3204 0.7734
vn 0.7703 0.3189 0.5523
vn -0.0000 -0.0000 -1.0000
vn -0.0000 -0.9654 -0.2608
vn -0.6632 -0.7024 -0.2584
vn -0.9667 -0.0000 -0.2560
vn 0.9667 -0.0000 -0.2560
vn 0.6632 -0.7024 -0.2584
vn 0.6632 0.7024 -0.2584
vn -0.6632 0.7024 -0.2584
vn -0.0000 -0.0000 1.0000
vn -0.3810 -0.0000 0.9246
vn -0.2619 -0.2714 0.9261
vn -0.0000 -0.3731 0.9278
vn 0.3810 -0.0000 0.9246
vn 0.2619 -0.2714 0.9261
vn 0.2619 0.2714 0.9261
vn -0.2619 0.2714 0.9261
vn -0.0000 0.5905 0.8071
vn -0.6632 0.7024 -0.2585
vt 0.861609 0.878961
vt 0.862882 0.878961
vt 0.862882 0.897496
vt 0.861609 0.897496
vt 0.849806 0.897496
vt 0.852367 0.897496
vt 0.852367 0.914176
vt 0.849806 0.914176
vt 0.792451 0.808529
vt 0.810986 0.808529
vt 0.819326 0.810764
vt 0.825432 0.816869
vt 0.827667 0.825209
vt 0.827667 0.843745
vt 0.792451 0.843745
vt 0.792451 0.878961
vt 0.827667 0.878961
vt 0.827667 0.897496
vt 0.825432 0.905836
vt 0.819326 0.911942
vt 0.810986 0.914176
vt 0.792451 0.914176
vt 0.827667 0.854260
vt 0.827667 0.855483
vt 0.792451 0.855483
vt 0.792451 0.854260
vt 0.827667 0.877716
vt 0.792451 0.877716
vt 0.862882 0.914176
vt 0.861609 0.914176
vt 0.819326 0.948119
vt 0.819326 0.949392
vt 0.810986 0.949392
vt 0.810986 0.948119
vt 0.779511 0.878961
vt 0.780712 0.878961
vt 0.780712 0.914176
vt 0.779511 0.914176
vt 0.827667 0.866021
vt 0.827667 0.867222
vt 0.792451 0.867222
vt 0.792451 0.866021
vt 0.792451 0.949392
vt 0.792451 0.948119
vt 0.810986 0.938877
vt 0.792451 0.938877
vt 0.792451 0.937654
vt 0.792451 0.936316
vt 0.810986 0.936316
vt 0.827667 0.948119
vt 0.827667 0.949392
vt 0.827667 0.927116
vt 0.819326 0.927116
vt 0.819326 0.924609
vt 0.827667 0.924609
vt 0.819326 0.938877
vt 0.819326 0.936316
vt 0.767750 0.878961
vt 0.768974 0.878961
vt 0.768974 0.914176
vt 0.767750 0.914176
vt 0.810986 0.927116
vt 0.810986 0.924609
vt 0.791206 0.878961
vt 0.791206 0.914176
vt 0.827667 0.938877
vt 0.827667 0.936316
vt 0.838099 0.897496
vt 0.840606 0.897496
vt 0.840606 0.914176
vt 0.838099 0.914176
vt 0.839405 0.878961
vt 0.840606 0.878961
vt 0.838099 0.878961
vt 0.792451 0.927116
vt 0.792451 0.925915
vt 0.792451 0.924609
vt 0.758509 0.878961
vt 0.758509 0.914176
vt 0.827667 0.845018
vt 0.792451 0.845018
vt 0.757235 0.878961
vt 0.757235 0.914176
vt 0.810986 0.915421
vt 0.852367 0.878961
vt 0.849806 0.878961
vt 0.827667 0.856821
vt 0.792451 0.856821
vt 0.770311 0.878961
vt 0.770311 0.914176
vt 0.819326 0.915421
vt 0.827667 0.915421
vt 0.828911 0.878961
vt 0.828911 0.897496
vt 0.782019 0.878961
vt 0.782019 0.914176
vt 0.828911 0.914176
vt 0.792451 0.915421
vt 0.827667 0.868528
vt 0.792451 0.868528
vt 0.819326 0.914176
vt 0.827667 0.914176
vt 0.851144 0.878961
vt 0.799439 0.709892
vt 0.776616 0.709892
vt 0.776616 0.721271
vt 0.799439 0.721271
vt 0.799439 0.698513
vt 0.776616 0.698513
vt 0.822263 0.698513
vt 0.822263 0.709892
vt 0.822263 0.721271
vt 0.428346 0.354423
vt 0.405522 0.354423
vt 0.405522 0.365803
vt 0.428346 0.365803
vt 0.428346 0.343044
vt 0.405522 0.343044
vt 0.451169 0.343044
vt 0.451169 0.354423
vt 0.451169 0.365803
s 1
usemtl tilemap
f 33/1/1 3/2/1 8/3/2 29/4/2
f 35/5/2 26/6/2 23/7/3 37/8/3
f 1/9/4 7/10/4 9/11/4 10/12/4 8/13/4 3/14/4 2/15/4
f 5/16/5 6/17/5 11/18/5 13/19/5 14/20/5 12/21/5 4/22/5
f 25/23/1 15/24/1 20/25/6 22/26/6
f 56/27/1 6/17/1 5/16/6 61/28/6
f 29/4/2 8/3/2 10/29/7 31/30/3
f 30/31/8 9/32/8 7/33/9 32/34/10
f 48/35/6 17/36/6 19/37/11 44/38/11
f 46/39/1 16/40/1 17/41/6 48/42/6
f 32/34/10 7/33/9 1/43/11 34/44/11
f 24/45/10 27/46/11 18/47/11 38/48/11 39/49/10
f 31/50/3 10/51/7 9/32/8 30/31/8
f 43/52/3 42/53/8 54/54/8 53/55/3
f 21/56/8 24/45/10 39/49/10 36/57/8
f 22/58/6 20/59/6 18/60/11 27/61/11
f 42/53/8 45/62/10 55/63/10 54/54/8
f 61/64/6 5/16/6 4/22/11 57/65/11
f 23/66/3 21/56/8 36/57/8 37/67/3
f 50/68/2 47/69/2 43/70/3 53/71/3
f 16/72/1 46/73/1 47/69/2 50/68/2 51/74/1
f 45/62/10 44/75/11 19/76/11 52/77/11 55/63/10
f 28/78/6 22/58/6 27/61/11 34/79/11
f 33/80/1 25/23/1 22/26/6 28/81/6
f 3/14/1 33/80/1 28/81/6 2/15/6
f 2/82/6 28/78/6 34/79/11 1/83/11
f 21/56/4 23/66/12 66/66/13 64/56/14
f 24/45/10 32/34/10 34/44/11 27/46/11
f 55/63/15 60/84/16 80/84/17 77/63/18
f 26/6/2 29/4/2 31/30/3 23/7/3
f 25/85/1 33/1/1 29/4/2 26/6/2
f 43/70/12 37/8/19 71/8/20 73/70/13
f 45/62/10 39/49/10 38/48/11 44/75/11
f 47/69/2 35/5/2 37/8/3 43/70/3
f 46/73/1 40/86/1 35/5/2 47/69/2
f 15/24/1 40/87/1 41/88/6 20/25/6
f 20/59/6 41/89/6 38/90/11 18/60/11
f 59/91/4 58/92/12 78/92/13 79/91/14
f 40/87/1 46/39/1 48/42/6 41/88/6
f 41/89/6 48/35/6 44/38/11 38/90/11
f 56/93/1 51/74/1 50/68/2 62/94/2
f 36/57/5 39/49/15 70/49/18 69/57/21
f 17/36/6 49/95/6 52/96/11 19/37/11
f 62/94/2 50/68/2 53/71/3 58/97/3
f 60/84/10 55/63/10 52/77/11 57/98/11
f 16/40/1 51/99/1 49/100/6 17/41/6
f 58/97/12 53/71/19 75/71/20 78/97/13
f 14/101/8 59/91/8 60/84/10 12/21/9
f 12/21/9 60/84/10 57/98/11 4/22/11
f 11/18/2 62/94/2 58/97/3 13/102/7
f 13/102/7 58/92/3 59/91/8 14/101/8
f 6/17/1 56/93/1 62/94/2 11/18/2
f 49/95/6 61/64/6 57/65/11 52/96/11
f 51/99/1 56/27/1 61/28/6 49/100/6
f 66/66/13 65/50/20 63/31/21 64/56/14
f 64/56/14 63/31/21 67/34/18 68/45/17
f 72/53/14 69/57/21 70/49/18 74/62/17
f 73/52/13 71/67/20 69/57/21 72/53/14
f 78/92/13 75/55/20 76/54/21 79/91/14
f 79/91/14 76/54/21 77/63/18 80/84/17
f 39/49/15 45/62/16 74/62/17 70/49/18
f 31/50/19 30/31/5 63/31/21 65/50/20
f 45/62/16 42/53/4 72/53/14 74/62/17
f 23/7/12 31/30/19 65/30/20 66/7/13
f 54/54/5 55/63/15 77/63/18 76/54/21
f 24/45/16 21/56/4 64/56/14 68/45/17
f 30/31/5 32/34/15 67/34/18 63/31/21
f 60/84/16 59/91/4 79/91/14 80/84/17
f 32/34/15 24/45/16 68/45/17 67/34/18
f 37/67/19 36/57/5 69/57/21 71/67/20
f 42/53/4 43/52/12 73/52/13 72/53/14
f 53/55/19 54/54/5 76/54/21 75/55/20
f 15/103/1 25/85/1 26/6/2 35/5/2 40/86/1
f 89/104/22 86/105/23 84/106/24 88/107/25
f 87/108/26 82/109/27 86/105/23 89/104/22
f 81/110/28 87/108/26 89/104/22 85/111/22
f 85/111/22 89/104/22 88/107/25 83/112/29
f 98/104/30 95/107/31 96/106/32 92/105/33
f 94/108/34 98/104/30 92/105/33 93/109/35
f 91/110/36 90/111/30 98/104/30 94/108/34
f 90/111/30 97/112/37 95/107/31 98/104/30
f 87/108/26 81/110/28 91/110/36 94/108/34
f 84/106/24 86/105/23 92/105/33 96/106/32
f 88/107/25 84/106/24 96/106/32 95/107/31
f 86/105/23 82/109/27 93/109/35 92/105/33
f 83/112/29 88/107/25 95/107/31 97/112/37
f 85/111/38 83/112/29 97/112/37 90/111/38
f 82/109/27 87/108/26 94/108/34 93/109/35
f 81/110/28 85/111/38 90/111/38 91/110/36
f 107/113/22 104/114/23 102/115/24 106/116/25
f 105/117/26 100/118/27 104/114/23 107/113/22
f 99/119/28 105/117/26 107/113/22 103/120/22
f 103/120/22 107/113/22 106/116/25 101/121/39
f 116/113/30 113/116/31 114/115/32 110/114/33
f 112/117/34 116/113/30 110/114/33 111/118/35
f 109/119/36 108/120/30 116/113/30 112/117/34
f 108/120/30 115/121/37 113/116/31 116/113/30
f 105/117/26 99/119/28 109/119/36 112/117/34
f 102/115/24 104/114/23 110/114/33 114/115/32
f 106/116/25 102/115/24 114/115/32 113/116/31
f 104/114/23 100/118/27 111/118/35 110/114/33
f 101/121/39 106/116/25 113/116/31 115/121/37
f 103/120/38 101/121/39 115/121/37 108/120/38
f 100/118/27 105/117/26 112/117/34 111/118/35
f 99/119/28 103/120/38 108/120/38 109/119/36
