# Blender 4.3.2
# www.blender.org
mtllib picture_frame.mtl
o Cube.018
v -0.008986 0.036670 -0.000702
v -0.010813 -0.092463 0.080773
v 0.025223 0.036670 -0.000702
v 0.023396 -0.092463 0.080773
v 0.025223 0.036670 -0.012637
v -0.008986 0.036670 -0.012637
v -0.010813 -0.092463 0.068838
v 0.023396 -0.092463 0.068838
v -0.138421 0.126485 0.026852
v -0.138421 -0.096933 -0.050073
v 0.128815 0.126485 0.026852
v 0.128815 -0.096933 -0.050073
v 0.112055 0.116372 0.004744
v -0.121662 0.116372 0.004744
v -0.121662 -0.075353 -0.061269
v 0.112055 -0.075353 -0.061269
v 0.128815 0.132219 0.010200
v -0.138421 0.132219 0.010200
v -0.138421 -0.091200 -0.066725
v 0.128815 -0.091200 -0.066725
vn -0.0000 0.5336 0.8457
vn -0.0000 -0.5336 -0.8457
vn -0.0000 -1.0000 -0.0000
vn -0.9999 0.0142 -0.0000
vn 0.9999 -0.0142 -0.0000
vn -0.0000 1.0000 -0.0000
vn 0.5667 0.1570 0.8088
vn -0.5191 -0.6449 0.5609
vn 0.4936 0.2537 0.8318
vn -0.5406 -0.6888 0.4830
vn -0.4117 -0.3035 -0.8593
vn -0.4941 -0.2895 -0.8198
vn -0.5107 -0.2376 -0.8263
vn -0.4272 -0.2498 -0.8690
vn 0.6809 -0.3503 -0.6432
vn 0.7039 -0.3005 -0.6436
vn 0.7039 0.6436 -0.3005
vn 0.6809 -0.6432 0.3503
vn -0.4117 0.8593 -0.3035
vn -0.4941 0.8198 -0.2895
vn -0.5406 0.4830 0.6888
vn 0.5667 0.8088 -0.1570
vn -0.5107 -0.8263 0.2376
vn -0.4272 -0.8690 0.2498
vn -0.5191 -0.5609 -0.6449
vn 0.4936 -0.8318 0.2537
vn -0.7403 -0.6299 0.2349
vn -0.7137 -0.6699 0.2048
vn -0.7137 0.2048 0.6699
vn -0.7403 -0.2349 -0.6299
vn -0.3252 0.8421 -0.4302
vn 0.6066 -0.0988 -0.7888
vn 0.0366 -0.4291 -0.9025
vn -0.6702 -0.0576 -0.7400
vn -0.1813 0.8721 -0.4545
vn 0.6398 0.0459 -0.7671
vn -0.1856 -0.3700 -0.9103
vn -0.4687 -0.2598 -0.8443
vn -0.4244 0.7677 -0.4802
vn 0.6940 0.0004 -0.7200
vn -0.2650 -0.4239 -0.8661
vn -0.7059 0.1547 -0.6912
vn -0.3065 0.8067 -0.5052
vn 0.7028 0.1321 -0.6990
vn -0.4435 -0.2954 -0.8462
vn -0.5881 -0.0669 -0.8060
vt 0.380553 0.116869
vt 0.380553 0.148678
vt 0.412362 0.148678
vt 0.412362 0.116869
vt 0.278990 0.116869
vt 0.278990 0.148678
vt 0.310799 0.148678
vt 0.310799 0.116869
vt -0.001702 1.021758
vt 0.996470 1.021758
vt 0.996470 0.233294
vt -0.001702 0.233294
vt 0.307809 0.119125
vt 0.281981 0.119125
vt 0.281981 0.146422
vt 0.307809 0.146422
s 0
usemtl tilemap.001
f 1/1/1 2/2/1 4/3/1 3/4/1
f 6/1/2 5/4/2 8/3/2 7/2/2
f 4/3/3 2/2/3 7/2/3 8/3/3
f 2/2/4 1/1/4 6/1/4 7/2/4
f 3/4/5 4/3/5 8/3/5 5/4/5
f 1/1/6 3/4/6 5/4/6 6/1/6
f 9/5/7 10/6/8 12/7/9 11/8/10
f 14/9/11 13/10/12 16/11/13 15/12/14
f 11/8/15 12/7/16 20/7/17 17/8/18
f 9/5/19 11/8/20 17/8/21 18/5/22
f 12/7/23 10/6/24 19/6/25 20/7/26
f 10/6/27 9/5/28 18/5/29 19/6/30
f 13/13/31 14/14/32 18/5/33 17/8/34
f 14/14/35 15/15/36 19/6/37 18/5/38
f 16/16/39 13/13/40 17/8/41 20/7/42
f 15/15/43 16/16/44 20/7/45 19/6/46
