# Blender 4.3.2
# www.blender.org
mtllib posters.mtl
o Cylinder.003
v 3.206012 1.418985 -2.888802
v 3.148314 1.377167 -2.879918
v 3.037401 1.352727 -2.869416
v 2.926487 1.377167 -2.879918
v 2.868789 1.418985 -2.888802
v 3.206012 1.751900 -2.888802
v 3.148314 1.793718 -2.879918
v 3.037401 1.818158 -2.869416
v 2.926487 1.793718 -2.879918
v 2.868789 1.751900 -2.888802
v 2.826578 1.689507 -2.903078
v 2.930472 1.485047 -2.880393
v 2.930472 1.685839 -2.880393
v 3.144330 1.685839 -2.880393
v 3.144330 1.485047 -2.880393
v 2.802609 1.585443 -2.904178
v 2.826578 1.481378 -2.903078
v 3.248223 1.689507 -2.903078
v 3.272193 1.585443 -2.904178
v 3.248223 1.481378 -2.903078
v 3.903354 1.199747 1.409293
v 3.903354 1.219747 1.389293
v 3.903354 1.205605 1.395151
v 3.903354 1.352058 1.409293
v 3.903354 1.332058 1.389293
v 3.903354 1.346200 1.395151
v 3.903354 1.352058 1.872902
v 3.903354 1.332058 1.892902
v 3.903354 1.346200 1.887044
v 3.903354 1.199747 1.872902
v 3.903354 1.219747 1.892902
v 3.903354 1.205605 1.887044
v 3.686002 1.908693 3.919134
v 3.686002 0.820717 3.919134
v 2.880218 1.908693 3.919134
v 2.880218 0.820717 3.919134
v 3.891529 2.004348 -2.327748
v 3.891529 0.916371 -2.327748
v 3.891529 2.004348 -1.521964
v 3.891529 0.916371 -1.521964
v 3.886665 2.019794 0.975393
v 3.886665 1.470515 0.975393
v 3.886665 2.019794 2.405814
v 3.886665 1.470515 2.405814
v 3.903354 0.815003 1.409293
v 3.903354 0.835002 1.389293
v 3.903354 0.820860 1.395151
v 3.903354 0.967313 1.409293
v 3.903354 0.947313 1.389293
v 3.903354 0.961455 1.395151
v 3.903354 0.967313 1.872902
v 3.903354 0.947313 1.892902
v 3.903354 0.961455 1.887044
v 3.903354 0.815003 1.872902
v 3.903354 0.835002 1.892902
v 3.903354 0.820860 1.887044
v 3.904489 2.456990 0.194991
v 3.904489 2.408629 0.128266
v 3.904489 2.380366 0.000000
v 3.904489 2.408629 -0.128266
v 3.904489 2.456990 -0.194991
v 3.904489 2.841989 0.194991
v 3.904489 2.890349 0.128266
v 3.904489 2.918612 0.000000
v 3.904489 2.890349 -0.128266
v 3.904489 2.841988 -0.194991
v 3.904489 2.769834 -0.243805
v 3.904489 2.649489 -0.271525
v 3.904489 2.529144 -0.243805
v 3.904489 2.769834 0.243805
v 3.904489 2.649489 0.271525
v 3.904489 2.529144 0.243805
v 3.904489 2.472420 0.179054
v 3.904489 2.428985 0.119126
v 3.904489 2.402736 0.000000
v 3.904489 2.428985 -0.119126
v 3.904489 2.472420 -0.179053
v 3.904489 2.869992 0.119126
v 3.904489 2.826559 0.179053
v 3.904489 2.896242 0.000000
v 3.904489 2.869992 -0.119126
v 3.904489 2.826559 -0.179053
v 3.904489 2.760964 -0.223430
v 3.904489 2.538014 -0.223430
v 3.904489 2.538013 0.223430
v 3.904489 2.649489 0.249107
v 3.904489 2.760964 0.223430
v 3.904489 2.649489 -0.249107
v 3.896427 2.472420 0.179054
v 3.896427 2.428985 0.119126
v 3.896427 2.402736 0.000000
v 3.896427 2.428985 -0.119126
v 3.896427 2.472420 -0.179053
v 3.896427 2.869992 0.119126
v 3.896427 2.826559 0.179053
v 3.896427 2.896242 0.000000
v 3.896427 2.869992 -0.119126
v 3.896427 2.826559 -0.179053
v 3.896427 2.760964 -0.223430
v 3.896427 2.538014 -0.223430
v 3.896427 2.538013 0.223430
v 3.896427 2.649489 0.249107
v 3.896427 2.760964 0.223430
v 3.896427 2.649489 -0.249107
v 3.896427 2.456990 0.194991
v 3.896427 2.408629 0.128266
v 3.896427 2.380366 0.000000
v 3.896427 2.408629 -0.128266
v 3.896427 2.456990 -0.194991
v 3.896427 2.890349 0.128266
v 3.896427 2.841989 0.194991
v 3.896427 2.918612 0.000000
v 3.896427 2.890349 -0.128266
v 3.896427 2.841988 -0.194991
v 3.896427 2.769834 -0.243805
v 3.896427 2.529144 -0.243805
v 3.896427 2.529144 0.243805
v 3.896427 2.649489 0.271525
v 3.896427 2.769834 0.243805
v 3.896427 2.649489 -0.271525
v 3.904489 2.472420 0.179054
v 3.904489 2.428985 0.119126
v 3.904489 2.402736 0.000000
v 3.904489 2.428985 -0.119126
v 3.904489 2.472420 -0.179053
v 3.904489 2.869992 0.119126
v 3.904489 2.826559 0.179053
v 3.904489 2.896242 0.000000
v 3.904489 2.869992 -0.119126
v 3.904489 2.826559 -0.179053
v 3.904489 2.760964 -0.223430
v 3.904489 2.538014 -0.223430
v 3.904489 2.538013 0.223430
v 3.904489 2.649489 0.249107
v 3.904489 2.760964 0.223430
v 3.904489 2.649489 -0.249107
vn 0.1441 0.0074 0.9895
vn 0.1441 -0.0074 0.9895
vn -0.0000 -0.0039 1.0000
vn 0.1797 -0.0426 0.9828
vn 0.1116 -0.0085 0.9937
vn 0.2134 0.0031 0.9770
vn 0.1978 -0.0000 0.9802
vn 0.2134 -0.0031 0.9770
vn -0.1441 -0.0074 0.9895
vn -0.1797 -0.0426 0.9828
vn -0.2134 -0.0031 0.9770
vn -0.1441 0.0074 0.9895
vn -0.1797 0.0426 0.9828
vn -0.1116 0.0085 0.9937
vn -0.1978 -0.0000 0.9802
vn -0.2134 0.0031 0.9770
vn -0.0000 0.0039 1.0000
vn 0.1116 0.0085 0.9937
vn 0.1797 0.0426 0.9828
vn -0.1116 -0.0085 0.9937
vn -1.0000 -0.0000 -0.0000
vn -0.0000 -0.0000 -1.0000
vn -0.0000 -0.8097 0.5868
vn -0.0000 0.5603 0.8283
vn -0.0000 1.0000 -0.0000
vn -0.0000 0.9123 0.4096
vn -0.7560 0.5972 0.2681
vn -0.7589 0.6512 -0.0000
vn -0.0000 -0.0000 1.0000
vn -0.0000 -0.3992 0.9169
vn -0.7508 -0.2637 0.6057
vn -0.7613 -0.0000 0.6484
vn -0.0000 0.2245 0.9745
vn -0.0000 0.9123 -0.4096
vn -0.7560 0.5972 -0.2681
vn -0.0000 0.3992 0.9169
vn -0.7507 0.2637 0.6057
vn -0.0000 -0.2245 0.9745
vn -0.0000 0.6956 -0.7185
vn -0.7483 0.4614 -0.4766
vn -0.0000 -0.6956 -0.7184
vn -0.0000 -0.3992 -0.9169
vn -0.7507 -0.2637 -0.6057
vn -0.7483 -0.4614 -0.4766
vn -0.0000 -0.5604 0.8283
vn -0.7613 -0.0000 -0.6484
vn -0.0000 -0.5604 -0.8283
vn -0.0000 0.3992 -0.9169
vn -0.7508 0.2637 -0.6057
vn -0.0000 0.5603 -0.8283
vn -0.7483 0.4614 0.4766
vn -0.7560 -0.5972 -0.2681
vn -0.7589 -0.6512 -0.0000
vn -0.7560 -0.5972 0.2681
vn -0.7483 -0.4614 0.4766
vn -0.0000 0.6956 0.7185
vn -0.0000 -0.2245 -0.9745
vn -0.0000 -0.9766 0.2152
vn -0.0000 -0.9123 -0.4096
vn -0.0000 0.2245 -0.9745
vn -0.0000 -0.9766 -0.2152
vn -0.0000 -1.0000 -0.0000
vn -0.0000 -0.8097 -0.5868
vn -0.0000 -0.9123 0.4096
vn -0.0000 0.8097 0.5868
vn -0.0000 -0.6956 0.7185
vn -0.0000 0.9766 0.2152
vn -0.0000 0.9766 -0.2152
vn -0.0000 0.8097 -0.5868
vt 0.908135 0.915393
vt 0.795875 0.939589
vt 0.713338 0.892635
vt 0.774548 0.967353
vt 0.746855 0.946639
vt 0.908102 0.965886
vt 0.863761 0.983683
vt 0.808558 0.981531
vt 0.769880 0.818291
vt 0.724000 0.783876
vt 0.754289 0.754126
vt 0.882141 0.794095
vt 0.909815 0.743870
vt 0.944128 0.777396
vt 0.809372 0.729005
vt 0.869946 0.729204
vt 0.968096 0.839095
vt 0.961749 0.898798
vt 0.939856 0.935648
vt 0.709920 0.829515
vt 0.006955 0.038019
vt 0.009499 0.033209
vt 0.015643 0.031217
vt 0.217034 0.031217
vt 0.223178 0.033209
vt 0.225722 0.038019
vt 0.225722 0.076217
vt 0.223178 0.081027
vt 0.217034 0.083019
vt 0.015643 0.083019
vt 0.009499 0.081027
vt 0.006955 0.076217
vt -0.000213 0.500123
vt 0.352973 0.500123
vt 0.352358 1.001035
vt -0.000828 1.001035
vt 0.690028 0.320844
vt 1.000391 0.320844
vt 0.999850 0.720188
vt 0.689488 0.720188
vt 0.000402 0.205803
vt 0.683333 0.205803
vt 0.683333 0.495009
vt 0.000402 0.495009
vt 0.006955 0.129068
vt 0.009499 0.124258
vt 0.015643 0.122266
vt 0.217034 0.122266
vt 0.223178 0.124258
vt 0.225722 0.129068
vt 0.225722 0.167266
vt 0.223178 0.172076
vt 0.217034 0.174068
vt 0.015643 0.174068
vt 0.009499 0.172076
vt 0.006955 0.167266
vt 0.000000 0.000000
vt 0.383971 0.015008
vt 0.339053 0.021545
vt 0.287097 0.102070
vt 0.295175 0.142664
vt 0.423440 0.028777
vt 0.296863 0.061810
vt 0.443678 0.047989
vt 0.438997 0.162797
vt 0.453465 0.142384
vt 0.463603 0.106447
vt 0.458244 0.072866
vt 0.507399 0.013674
vt 0.502626 0.009143
vt 0.503415 0.007433
vt 0.508771 0.012619
vt 0.493318 0.005896
vt 0.493566 0.003960
vt 0.482724 0.007438
vt 0.482161 0.005536
vt 0.476660 0.011311
vt 0.475109 0.009996
vt 0.501983 0.044234
vt 0.506295 0.040750
vt 0.507493 0.041869
vt 0.502874 0.045723
vt 0.492303 0.047304
vt 0.492388 0.049225
vt 0.482115 0.045477
vt 0.481569 0.047266
vt 0.476047 0.041724
vt 0.474411 0.043049
vt 0.472376 0.036002
vt 0.470594 0.036728
vt 0.472774 0.016934
vt 0.471025 0.016153
vt 0.510834 0.019541
vt 0.512612 0.019208
vt 0.512098 0.027461
vt 0.513842 0.027428
vt 0.509707 0.035936
vt 0.511259 0.036683
vt 0.470471 0.026429
vt 0.468556 0.026396
vt 0.313338 0.037971
vt 0.420713 0.177568
vt 0.379671 0.190585
vt 0.336470 0.182837
vt 0.310742 0.166925
s 1
usemtl Material.003
f 15/1/1 14/2/2 8/3/3
f 6/4/4 7/5/5 14/2/2
f 20/6/6 19/7/7 15/1/1
f 19/7/7 18/8/8 14/2/2
f 6/4/4 14/2/2 18/8/8
f 15/1/1 19/7/7 14/2/2
f 13/9/9 10/10/10 11/11/11
f 12/12/12 5/13/13 4/14/14
f 13/9/9 11/11/11 16/15/15
f 17/16/16 12/12/12 16/15/15
f 8/3/3 13/9/9 12/12/12
f 12/12/12 17/16/16 5/13/13
f 3/17/17 2/18/18 15/1/1
f 1/19/19 15/1/1 2/18/18
f 14/2/2 7/5/5 8/3/3
f 8/3/3 3/17/17 15/1/1
f 13/9/9 9/20/20 10/10/10
f 12/12/12 13/9/9 16/15/15
f 4/14/14 3/17/17 12/12/12
f 3/17/17 8/3/3 12/12/12
f 8/3/3 9/20/20 13/9/9
f 1/19/19 20/6/6 15/1/1
s 0
f 22/21/21 23/22/21 21/23/21 30/24/21 32/25/21 31/26/21 28/27/21 29/28/21 27/29/21 24/30/21 26/31/21 25/32/21
s 1
f 34/33/22 36/34/22 35/35/22 33/36/22
f 38/37/21 40/38/21 39/39/21 37/40/21
f 42/41/21 44/42/21 43/43/21 41/44/21
s 0
f 46/45/21 47/46/21 45/47/21 54/48/21 56/49/21 55/50/21 52/51/21 53/52/21 51/53/21 48/54/21 50/55/21 49/56/21
f 58/57/23 57/57/23 105/57/23 106/57/23
f 70/57/24 62/57/24 111/57/24 119/57/24
s 1
f 75/58/25 76/59/26 92/59/27 91/58/28
f 88/60/29 83/61/30 99/61/31 104/60/32
s 0
f 71/57/33 70/57/33 119/57/33 118/57/33
s 1
f 74/62/34 75/58/25 91/58/28 90/62/35
f 84/63/36 88/60/29 104/60/32 100/63/37
s 0
f 72/57/38 71/57/38 118/57/38 117/57/38
s 1
f 73/64/39 74/62/34 90/62/35 89/64/40
f 79/65/41 87/66/42 103/66/43 95/65/44
s 0
f 57/57/45 72/57/45 117/57/45 105/57/45
s 1
f 87/66/42 86/67/22 102/67/46 103/66/43
s 0
f 69/57/47 61/57/47 109/57/47 116/57/47
s 1
f 86/67/22 85/68/48 101/68/49 102/67/46
s 0
f 66/57/50 67/57/50 115/57/50 114/57/50
s 1
f 85/68/48 73/64/39 89/64/40 101/68/49
f 89/69/40 90/70/35 106/71/21 105/72/21
f 90/70/35 91/73/28 107/74/21 106/71/21
f 91/73/28 92/75/27 108/76/21 107/74/21
f 92/75/27 93/77/51 109/78/21 108/76/21
f 94/79/52 95/80/44 111/81/21 110/82/21
f 96/83/53 94/79/52 110/82/21 112/84/21
f 97/85/54 96/83/53 112/84/21 113/86/21
f 98/87/55 97/85/54 113/86/21 114/88/21
f 99/89/31 98/87/55 114/88/21 115/90/21
f 93/77/51 100/91/37 116/92/21 109/78/21
f 101/93/49 89/69/40 105/72/21 117/94/21
f 102/95/46 101/93/49 117/94/21 118/96/21
f 103/97/43 102/95/46 118/96/21 119/98/21
f 95/80/44 103/97/43 119/98/21 111/81/21
f 100/91/37 104/99/32 120/100/21 116/92/21
f 104/99/32 99/89/31 115/90/21 120/100/21
f 76/59/26 77/101/56 93/101/51 92/59/27
s 0
f 68/57/57 69/57/57 116/57/57 120/57/57
f 59/57/58 58/57/58 106/57/58 107/57/58
s 1
f 78/102/59 79/65/41 95/65/44 94/102/52
s 0
f 67/57/60 68/57/60 120/57/60 115/57/60
f 60/57/61 59/57/61 107/57/61 108/57/61
s 1
f 80/103/62 78/102/59 94/102/52 96/103/53
s 0
f 61/57/63 60/57/63 108/57/63 109/57/63
s 1
f 81/104/64 80/103/62 96/103/53 97/104/54
s 0
f 62/57/65 63/57/65 110/57/65 111/57/65
s 1
f 82/105/66 81/104/64 97/104/54 98/105/55
s 0
f 63/57/67 64/57/67 112/57/67 110/57/67
s 1
f 83/61/30 82/105/66 98/105/55 99/61/31
s 0
f 64/57/68 65/57/68 113/57/68 112/57/68
s 1
f 77/101/56 84/63/36 100/63/37 93/101/51
s 0
f 65/57/69 66/57/69 114/57/69 113/57/69
s 1
f 121/64/21 133/68/21 134/67/21 135/66/21 127/65/21 126/102/21 128/103/21 129/104/21 130/105/21 131/61/21 136/60/21 132/63/21 125/101/21 124/59/21 123/58/21 122/62/21
