# Blender 4.3.2
# www.blender.org
mtllib russian_for_dummies.mtl
o Cube.010
v -0.187718 -0.179319 -0.187076
v -0.193420 -0.222757 -0.124472
v 0.167030 -0.200271 -0.159428
v 0.186481 -0.211789 -0.142979
v 0.181252 -0.202710 -0.156016
v 0.184758 -0.224912 -0.124064
v 0.162535 -0.234512 -0.110080
v 0.177223 -0.233403 -0.111782
v 0.152306 -0.194966 -0.166962
v 0.146604 -0.238405 -0.104359
v 0.159751 -0.196990 -0.164101
v 0.154487 -0.237087 -0.106314
v -0.192817 -0.218158 -0.131099
v -0.188322 -0.183918 -0.180447
v 0.147208 -0.233806 -0.110987
v 0.151703 -0.199566 -0.160334
v 0.159366 -0.199918 -0.159881
v 0.154872 -0.234159 -0.110533
v -0.182354 -0.210955 -0.125148
v -0.177859 -0.176714 -0.174496
v 0.147246 -0.226123 -0.105652
v 0.151741 -0.191882 -0.155000
v -0.176862 0.024818 -0.034566
v 0.152738 0.009649 -0.015070
v 0.148243 -0.024592 0.034276
v 0.191349 -0.211465 -0.143478
v 0.185198 -0.200786 -0.158815
v 0.167634 -0.195672 -0.166056
v 0.161931 -0.239111 -0.103452
v 0.180619 -0.235665 -0.108549
v 0.189483 -0.225677 -0.122996
v 0.167068 -0.192587 -0.154093
v 0.186519 -0.204105 -0.137644
v 0.181290 -0.195027 -0.150681
v 0.184796 -0.217229 -0.118730
v 0.177261 -0.225720 -0.106447
v 0.159404 -0.192235 -0.154546
v 0.154910 -0.226476 -0.105199
v 0.162573 -0.226829 -0.104746
v -0.185647 0.239111 0.103453
v -0.191349 0.195672 0.166056
v 0.169101 0.218158 0.131100
v 0.188552 0.206641 0.147550
v 0.183323 0.215719 0.134512
v 0.186829 0.193517 0.166463
v 0.164606 0.183918 0.180448
v 0.179294 0.185027 0.178746
v 0.154377 0.223463 0.123566
v 0.148675 0.180024 0.186169
v 0.161822 0.221439 0.126427
v 0.156558 0.181342 0.184214
v -0.190746 0.200271 0.159428
v -0.186251 0.234512 0.110081
v 0.149279 0.184623 0.179541
v 0.153774 0.218864 0.130193
v 0.161437 0.218511 0.130647
v 0.156943 0.184270 0.179994
v -0.180359 0.192108 0.154710
v -0.175864 0.226349 0.105362
v 0.149241 0.176939 0.174206
v 0.153736 0.211181 0.124859
v 0.193420 0.206965 0.147049
v 0.187269 0.217643 0.131713
v 0.169705 0.222757 0.124472
v 0.164002 0.179318 0.187076
v 0.182690 0.182765 0.181979
v 0.191555 0.192752 0.167531
v 0.169063 0.210475 0.125766
v 0.188514 0.198958 0.142215
v 0.183285 0.208036 0.129177
v 0.186791 0.185834 0.161128
v 0.179256 0.177343 0.173411
v 0.161399 0.210828 0.125312
v 0.156905 0.176587 0.174659
v 0.164568 0.176234 0.175113
v -0.181356 -0.009424 0.014781
v -0.191781 -0.008944 0.014164
v -0.187286 0.025298 -0.035183
v -0.186869 -0.007847 -0.068017
v 0.192198 -0.039993 -0.024421
v 0.162780 -0.067639 0.015605
v 0.153155 -0.023495 -0.047905
v 0.147453 -0.066934 0.014699
v 0.155336 -0.065615 0.012744
v 0.160599 -0.025519 -0.045043
v -0.187473 -0.012446 -0.061389
v -0.192572 -0.051286 -0.005414
v 0.186046 -0.029315 -0.039757
v 0.168482 -0.024200 -0.046998
v 0.181468 -0.064193 0.010509
v 0.190332 -0.054205 -0.003939
v -0.191968 -0.046687 -0.012042
vn -0.5350 -0.1195 -0.8364
vn -0.6212 -0.7760 0.1097
vn -0.1255 -0.9830 0.1337
vn -0.6553 -0.6625 -0.3629
vn -0.3936 -0.9085 -0.1405
vn -0.6362 -0.5167 -0.5729
vn -0.0243 -0.2124 -0.9769
vn -0.3294 -0.4188 -0.8462
vn 0.1866 -0.1394 -0.9725
vn 0.0774 -0.9710 0.2260
vn 0.0418 -0.3113 -0.9494
vn -0.0483 -0.9980 0.0402
vn 0.0499 -0.1788 -0.9826
vn -0.0556 -0.9828 0.1761
vn -0.0556 -0.9828 0.1760
vn -0.3479 0.1476 -0.9259
vn -0.4697 -0.7808 0.4120
vn 0.0298 -0.4805 -0.8765
vn -0.0370 -0.9889 -0.1437
vn -0.9972 0.0459 -0.0590
vn 0.0746 0.5685 -0.8193
vn -0.0746 -0.5685 0.8193
vn 0.7380 -0.4976 -0.4558
vn 0.5859 -0.2308 -0.7768
vn 0.0658 -0.0798 -0.9946
vn -0.0498 -0.9603 0.2744
vn 0.5039 -0.8550 0.1227
vn 0.7162 -0.6632 -0.2172
vn -0.1339 -0.9707 0.1996
vn -0.7434 -0.5960 -0.3036
vn -0.5508 -0.8268 0.1146
vn -0.7217 -0.4305 -0.5421
vn -0.4605 -0.1389 -0.8767
vn -0.0256 -0.1460 -0.9890
vn -0.5303 0.8290 -0.1778
vn -0.6165 0.1725 0.7683
vn -0.1195 0.2191 0.9684
vn -0.6492 0.5758 0.4969
vn -0.3869 0.4517 0.8039
vn -0.6301 0.7216 0.2869
vn -0.0184 0.9897 -0.1422
vn -0.3226 0.9414 0.0982
vn 0.1920 0.9586 -0.2100
vn 0.0829 0.1270 0.9884
vn 0.0483 0.9980 -0.0402
vn -0.0419 0.3113 0.9494
vn 0.0556 0.9828 -0.1760
vn -0.0499 0.1788 0.9826
vn -0.3445 0.8183 -0.4602
vn -0.4664 -0.1101 0.8777
vn 0.0370 0.9889 0.1437
vn -0.0297 0.4804 0.8765
vn 0.7434 0.5960 0.3036
vn 0.5910 0.8046 -0.0580
vn 0.0709 0.9593 -0.2732
vn -0.0447 0.0788 0.9959
vn 0.5091 0.1804 0.8416
vn 0.7217 0.4305 0.5421
vn -0.1283 0.1531 0.9798
vn -0.7380 0.4977 0.4558
vn -0.5457 0.1852 0.8172
vn -0.7162 0.6632 0.2173
vn -0.4555 0.8731 -0.1741
vn 0.0557 0.9828 -0.1760
vn -0.0201 0.9778 -0.2087
vn -0.6524 0.4344 -0.6210
vn 0.9926 0.0659 -0.1020
vn -0.0610 -0.5691 0.8200
vn 0.2545 0.5507 -0.7949
vn 0.1078 -0.5674 0.8164
vn -0.7579 -0.3695 0.5376
vn 0.7579 0.3695 -0.5376
vn 0.0883 0.5678 -0.8184
vn 0.6524 -0.4344 0.6210
vn 0.9635 -0.1559 0.2177
vt 0.689720 0.706060
vt 0.356602 0.706060
vt 0.356602 0.505309
vt 0.689720 0.505309
vt 0.356602 0.706060
vt 0.356602 0.706060
vt 0.356602 0.706060
vt 0.356602 0.706060
vt 0.356602 0.706060
vt 0.356602 0.995188
vt 0.353834 0.505309
vt 0.358132 0.505309
vt 0.359859 0.505309
vt 0.359792 0.505309
vt 0.358151 0.505309
vt 0.475824 0.566541
vt 0.451108 0.566541
vt 0.476059 0.566541
vt 0.590062 0.750248
vt 0.353834 0.750248
vt 0.353834 0.514304
vt 0.590062 0.514304
vt 0.357734 0.706060
vt 0.718078 0.734232
vt 0.701393 0.734232
vt 0.719308 0.734232
vt 0.718078 0.750897
vt 0.719308 0.750897
vt 0.358135 0.514304
vt 0.359859 0.514304
vt 0.359859 0.750248
vt 0.358135 0.750248
vt 0.356602 0.706060
vt 0.356602 0.706060
vt 0.361533 0.706060
vt 0.359305 0.706060
vt 0.359305 0.505309
vt 0.361533 0.505309
vt 0.358508 0.706060
vt 0.358865 0.505309
vt 0.358132 0.706060
vt 0.456554 0.558872
vt 0.456571 0.558403
vt 0.444243 0.558403
vt 0.444243 0.558872
vt 0.358135 0.986192
vt 0.358132 0.750248
vt 0.358132 0.995188
vt 0.353834 0.995188
vt 0.358151 0.995188
vt 0.359792 0.995188
vt 0.359859 0.995188
vt 0.588158 0.995188
vt 0.590386 0.995188
vt 0.590062 0.986192
vt 0.353834 0.986192
vt 0.718078 0.767561
vt 0.719308 0.767561
vt 0.701393 0.767561
vt 0.359859 0.986192
vt 0.705207 0.751059
vt 0.361533 0.995188
vt 0.361533 0.750248
vt 0.361209 0.750248
vt 0.361209 0.986192
vt 0.361209 0.514304
vt 0.358865 0.995188
vt 0.359305 0.995188
vt 1.004394 0.320947
vt 0.692668 0.320947
vt 0.692668 0.050385
vt 1.004394 0.050385
s 1
usemtl Material.003
f 79/1/66 82/2/69 9/3/9 1/4/1
f 80/5/67 91/6/75 31/3/28 26/3/23
f 81/7/68 84/8/22 12/3/12 29/3/26
f 90/9/74 66/10/57 65/10/56 81/7/68
f 15/11/13 18/11/13 12/11/12 10/11/10
f 18/11/13 7/11/7 29/11/26 12/11/12
f 9/11/9 11/11/11 17/11/15 16/11/14
f 11/11/11 28/11/25 3/11/3 17/11/15
f 13/12/1 15/13/13 10/14/10 2/15/2
f 1/16/1 9/17/9 16/17/14 14/18/2
f 23/19/20 24/20/21 22/21/19 20/22/17
f 84/8/22 83/23/70 10/3/10 12/3/12
f 20/24/17 22/25/19 21/25/18 19/26/16
f 23/27/20 20/24/17 19/26/16 76/28/20
f 19/29/16 21/30/18 25/31/22 76/32/20
f 82/2/69 85/6/21 11/3/11 9/3/9
f 91/6/75 67/10/58 66/10/57 90/9/74
f 85/6/21 89/33/73 28/3/25 11/3/11
f 89/33/73 64/10/55 63/10/54 88/34/72
f 88/34/72 63/10/54 62/10/53 80/5/67
f 86/35/20 79/36/66 1/37/1 14/38/2
f 83/23/70 87/39/71 2/40/2 10/40/10
f 87/39/71 92/41/20 13/12/1 2/15/2
f 4/11/4 5/11/5 27/11/24 26/11/23
f 5/11/5 3/11/3 28/11/25 27/11/24
f 7/11/7 8/11/8 30/11/27 29/11/26
f 8/11/8 6/11/6 31/11/28 30/11/27
f 6/11/6 4/11/4 26/11/23 31/11/28
f 22/25/19 37/25/15 32/25/29 34/25/31 33/25/30 35/25/32 36/25/33 39/25/34 38/25/13 21/25/18
f 20/42/17 14/43/2 16/44/14 22/45/19
f 15/13/13 13/12/1 19/29/16 21/30/18
f 58/46/49 76/32/20 77/47/21 52/48/35
f 17/11/15 3/11/3 32/21/29 37/21/15
f 16/11/14 17/11/15 37/21/15 22/21/19
f 8/11/8 7/11/7 39/21/34 36/21/33
f 6/11/6 8/11/8 36/21/33 35/21/32
f 18/11/13 15/11/13 21/21/18 38/21/13
f 7/11/7 18/11/13 38/21/13 39/21/34
f 5/11/5 4/11/4 33/21/30 34/21/31
f 4/11/4 6/11/6 35/21/32 33/21/30
f 3/11/3 5/11/5 34/21/31 32/21/29
f 54/49/47 49/49/44 51/49/46 57/49/47
f 57/49/47 51/49/46 65/49/56 46/49/41
f 48/49/43 55/49/48 56/49/48 50/49/45
f 50/49/45 56/49/48 42/49/37 64/49/55
f 52/48/35 41/50/36 49/51/44 54/52/47
f 40/53/35 53/54/36 55/49/48 48/49/43
f 23/19/20 59/55/50 61/56/52 24/20/21
f 59/57/50 58/58/49 60/59/51 61/59/52
f 23/27/20 76/28/20 58/58/49 59/57/50
f 58/46/49 76/32/20 25/31/22 60/60/51
f 43/49/38 62/49/53 63/49/54 44/49/39
f 44/49/39 63/49/54 64/49/55 42/49/37
f 46/49/41 65/49/56 66/49/57 47/49/42
f 47/49/42 66/49/57 67/49/58 45/49/40
f 45/49/40 67/49/58 62/49/53 43/49/38
f 61/61/52 60/61/51 74/61/64 75/61/65 72/61/63 71/61/62 69/61/60 70/61/61 68/61/59 73/61/48
f 59/55/50 61/56/52 55/49/48 53/54/36
f 54/52/47 60/60/51 58/46/49 52/48/35
f 56/49/48 73/56/48 68/56/59 42/49/37
f 55/49/48 61/56/52 73/56/48 56/49/48
f 47/49/42 72/56/63 75/56/65 46/49/41
f 45/49/40 71/56/62 72/56/63 47/49/42
f 57/49/47 74/56/64 60/56/51 54/49/47
f 46/49/41 75/56/65 74/56/64 57/49/47
f 44/49/39 70/56/61 69/56/60 43/49/38
f 43/49/38 69/56/60 71/56/62 45/49/40
f 42/49/37 68/56/59 70/56/61 44/49/39
f 19/29/16 13/12/1 77/47/21 76/32/20
f 53/62/36 78/63/22 23/64/20 59/65/50
f 20/66/17 23/64/20 78/63/22 14/38/2
f 41/50/36 52/48/35 92/41/20 87/39/71
f 49/67/44 41/67/36 87/39/71 83/23/70
f 53/62/36 40/68/35 79/36/66 86/35/20
f 27/3/24 88/34/72 80/5/67 26/3/23
f 28/3/25 89/33/73 88/34/72 27/3/24
f 50/10/45 64/10/55 89/33/73 85/6/21
f 31/3/28 91/6/75 90/9/74 30/3/27
f 48/10/43 50/10/45 85/6/21 82/2/69
f 51/10/46 49/10/44 83/23/70 84/8/22
f 30/3/27 90/9/74 81/7/68 29/3/26
f 65/10/56 51/10/46 84/8/22 81/7/68
f 62/10/53 67/10/58 91/6/75 80/5/67
f 40/69/35 48/70/43 82/71/69 79/72/66
