# Blender 4.3.2
# www.blender.org
mtllib tape_04.mtl
o Cylinder.010
v 2.604760 1.448429 -3.007124
v 2.604760 1.309281 -3.007124
v 2.768888 1.361919 -2.923496
v 2.748853 1.496998 -2.933705
v 2.500865 1.256482 -3.111019
v 2.485553 1.393903 -3.126331
vn -0.5627 -0.0000 0.8267
vn -0.6124 -0.0000 0.7906
vn -0.4540 -0.0000 0.8910
vn -0.7071 -0.0000 0.7071
vt 0.463413 0.845474
vt 0.466095 0.935091
vt 0.402666 0.944243
vt 0.401363 0.865231
vt 0.401740 0.782312
vt 0.466095 0.772456
s 1
usemtl tilemap
f 2/1/2 3/2/3 4/3/3 1/4/1
f 1/4/1 6/5/4 5/6/4 2/1/2
