# Blender 4.3.2
# www.blender.org
mtllib tape_03.mtl
o Cylinder.009
v 3.036765 0.914710 -2.868592
v 2.813723 0.882040 -2.903918
v 3.242886 0.949340 -2.901238
v 3.248513 0.792463 -2.902129
v 2.813723 0.738637 -2.903918
v 3.036765 0.768900 -2.868592
vn 0.0154 -0.0000 0.9999
vn -0.1564 -0.0000 0.9877
vn 0.1564 -0.0000 0.9877
vn -0.0121 -0.0000 0.9999
vt 0.476228 0.868096
vt 0.473869 0.975309
vt 0.406969 0.983489
vt 0.408206 0.876414
vt 0.480480 0.768765
vt 0.406969 0.775055
s 1
usemtl tilemap
f 1/1/1 2/2/2 5/3/2 6/4/4
f 3/5/3 1/1/1 6/4/4 4/6/3
